<svg width="1652" height="993" xmlns="http://www.w3.org/2000/svg" xmlns:xlink="http://www.w3.org/1999/xlink" xml:space="preserve" overflow="hidden"><defs><clipPath id="clip0"><rect x="1732" y="407" width="1652" height="993"/></clipPath></defs><g clip-path="url(#clip0)" transform="translate(-1732 -407)"><rect x="1733" y="408" width="1649" height="990" fill="#FFFFFF"/><g><path d="M1889.5 1087.54 3332.5 1087.54M1889.5 987.533 3332.5 987.533M1889.5 887.529 3332.5 887.529M1889.5 787.526 3332.5 787.526M1889.5 686.523 3332.5 686.523M1889.5 586.5 3332.5 586.5" stroke="#D9D9D9" stroke-width="3.4375" stroke-linejoin="round" stroke-miterlimit="10" fill="none"/></g><g><path d="M1965.06 1153.04 2034.07 1153.04 2034.07 1187 1965.06 1187ZM2446.08 1121.04 2514.08 1121.04 2514.08 1187 2446.08 1187ZM2926.1 1105.04 2995.1 1105.04 2995.1 1187 2926.1 1187Z" fill="#4472C4"/></g><g><path d="M2052.07 1159.04 2121.07 1159.04 2121.07 1187 2052.07 1187ZM2533.08 1115.04 2602.09 1115.04 2602.09 1187 2533.08 1187ZM3014.1 1125.04 3082.1 1125.04 3082.1 1187 3014.1 1187Z" fill="#ED7D31"/></g><g><path d="M2139.07 1135.04 2208.07 1135.04 2208.07 1187 2139.07 1187ZM2620.09 1093.04 2689.09 1093.04 2689.09 1187 2620.09 1187ZM3101.1 1101.04 3170.1 1101.04 3170.1 1187 3101.1 1187Z" fill="#A5A5A5"/></g><g><path d="M2227.07 1123.04 2295.08 1123.04 2295.08 1187 2227.07 1187ZM2707.09 703.023 2776.09 703.023 2776.09 1187 2707.09 1187ZM3188.1 1077.04 3257.11 1077.04 3257.11 1187 3188.1 1187Z" fill="#FFC000"/></g><g><path d="M1889.5 1187.5 3332.5 1187.5" stroke="#D9D9D9" stroke-width="3.4375" stroke-linejoin="round" stroke-miterlimit="10" fill="none" fill-rule="evenodd"/></g><g><text fill="#404040" font-family="Calibri,Calibri_MSFontService,sans-serif" font-weight="400" font-size="41" transform="matrix(1 0 0 1 1965.17 1121)">1.7s</text></g><g><text fill="#404040" font-family="Calibri,Calibri_MSFontService,sans-serif" font-weight="400" font-size="41" transform="matrix(1 0 0 1 2445.93 1089)">3.3s</text></g><g><text fill="#404040" font-family="Calibri,Calibri_MSFontService,sans-serif" font-weight="400" font-size="41" transform="matrix(1 0 0 1 2926.7 1073)">4.1s</text></g><g><text fill="#404040" font-family="Calibri,Calibri_MSFontService,sans-serif" font-weight="400" font-size="41" transform="matrix(1 0 0 1 2052.4 1127)">1.4s</text></g><g><text fill="#404040" font-family="Calibri,Calibri_MSFontService,sans-serif" font-weight="400" font-size="41" transform="matrix(1 0 0 1 2533.16 1083)">3.6s</text></g><g><text fill="#404040" font-family="Calibri,Calibri_MSFontService,sans-serif" font-weight="400" font-size="41" transform="matrix(1 0 0 1 3013.92 1093)">3.1s</text></g><g><text fill="#404040" font-family="Calibri,Calibri_MSFontService,sans-serif" font-weight="400" font-size="41" transform="matrix(1 0 0 1 2139.62 1103)">2.6s</text></g><g><text fill="#404040" font-family="Calibri,Calibri_MSFontService,sans-serif" font-weight="400" font-size="41" transform="matrix(1 0 0 1 2620.38 1061)">4.7s</text></g><g><text fill="#404040" font-family="Calibri,Calibri_MSFontService,sans-serif" font-weight="400" font-size="41" transform="matrix(1 0 0 1 3101.15 1069)">4.3s</text></g><g><text fill="#404040" font-family="Calibri,Calibri_MSFontService,sans-serif" font-weight="400" font-size="41" transform="matrix(1 0 0 1 2226.84 1091)">3.2s</text></g><g><text fill="#404040" font-family="Calibri,Calibri_MSFontService,sans-serif" font-weight="400" font-size="41" transform="matrix(1 0 0 1 2697.16 671)">24.2s</text></g><g><text fill="#404040" font-family="Calibri,Calibri_MSFontService,sans-serif" font-weight="400" font-size="41" transform="matrix(1 0 0 1 3188.37 1045)">5.5s</text></g><g><text fill="#595959" font-family="Calibri,Calibri_MSFontService,sans-serif" font-weight="400" font-size="41" transform="matrix(1 0 0 1 1783.19 1199)">0.0s</text></g><g><text fill="#595959" font-family="Calibri,Calibri_MSFontService,sans-serif" font-weight="400" font-size="41" transform="matrix(1 0 0 1 1783.19 1099)">5.0s</text></g><g><text fill="#595959" font-family="Calibri,Calibri_MSFontService,sans-serif" font-weight="400" font-size="41" transform="matrix(1 0 0 1 1762.29 999)">10.0s</text></g><g><text fill="#595959" font-family="Calibri,Calibri_MSFontService,sans-serif" font-weight="400" font-size="41" transform="matrix(1 0 0 1 1762.29 899)">15.0s</text></g><g><text fill="#595959" font-family="Calibri,Calibri_MSFontService,sans-serif" font-weight="400" font-size="41" transform="matrix(1 0 0 1 1762.29 799)">20.0s</text></g><g><text fill="#595959" font-family="Calibri,Calibri_MSFontService,sans-serif" font-weight="400" font-size="41" transform="matrix(1 0 0 1 1762.29 699)">25.0s</text></g><g><text fill="#595959" font-family="Calibri,Calibri_MSFontService,sans-serif" font-weight="400" font-size="41" transform="matrix(1 0 0 1 1762.29 599)">30.0s</text></g><g><text fill="#595959" font-family="Calibri,Calibri_MSFontService,sans-serif" font-weight="400" font-size="41" transform="matrix(1 0 0 1 2099.04 1252)">FCP</text></g><g><text fill="#595959" font-family="Calibri,Calibri_MSFontService,sans-serif" font-weight="400" font-size="41" transform="matrix(1 0 0 1 2580.61 1252)">LCP</text></g><g><text fill="#595959" font-family="Calibri,Calibri_MSFontService,sans-serif" font-weight="400" font-size="41" transform="matrix(1 0 0 1 3077.02 1252)">SI</text></g><g><text fill="#595959" font-family="DengXian,DengXian_MSFontService,sans-serif" font-weight="400" font-size="64" transform="matrix(1 0 0 1 2125.21 505)">性能测试（</text></g><g><text fill="#595959" font-family="Calibri,Calibri_MSFontService,sans-serif" font-weight="400" font-size="64" transform="matrix(1 0 0 1 2446.04 505)">lighthouse </text></g><g><text fill="#595959" font-family="DengXian,DengXian_MSFontService,sans-serif" font-weight="400" font-size="64" transform="matrix(1 0 0 1 2733.12 505)">移动端）</text></g><g><rect x="2204" y="1321" width="23" height="23" fill="#4472C4"/></g><g><text fill="#595959" font-family="Calibri,Calibri_MSFontService,sans-serif" font-weight="400" font-size="41" transform="matrix(1 0 0 1 2236.43 1344)">zkz098</text></g><g><rect x="2390" y="1321" width="22" height="23" fill="#ED7D31"/></g><g><text fill="#595959" font-family="Calibri,Calibri_MSFontService,sans-serif" font-weight="400" font-size="41" transform="matrix(1 0 0 1 2422.07 1344)">d-sketon</text></g><g><rect x="2608" y="1321" width="23" height="23" fill="#A5A5A5"/></g><g><text fill="#595959" font-family="Calibri,Calibri_MSFontService,sans-serif" font-weight="400" font-size="41" transform="matrix(1 0 0 1 2640.64 1344)">joytion</text></g><g><rect x="2797" y="1321" width="23" height="23" fill="#FFC000"/></g><g><text fill="#595959" font-family="Calibri,Calibri_MSFontService,sans-serif" font-weight="400" font-size="41" transform="matrix(1 0 0 1 2829.26 1344)">shoka</text></g><rect x="1733.5" y="408.5" width="1649" height="990" stroke="#D9D9D9" stroke-width="3.4375" stroke-linejoin="round" stroke-miterlimit="10" fill="none"/></g></svg>